<svg xmlns="http://www.w3.org/2000/svg" width="200" height="200" viewBox="0 0 200 200">
  <g id="icon" transform="translate(34.258 33.624)">
    <rect id="Rectángulo_10" data-name="Rectángulo 10" width="200" height="200" transform="translate(-34.258 -33.624)" fill="#fff" opacity="0"/>
    <g id="Grupo_1" data-name="Grupo 1" transform="translate(-10.258 2.707)">
      <path id="Trazado_4" data-name="Trazado 4" d="M67.294,25.243a22.1,22.1,0,0,1,38.335,0l54.185,94.477a22.1,22.1,0,0,1-19.167,33.089H32.277A22.1,22.1,0,0,1,13.109,119.72Z" transform="translate(-10.148 -14.14)" fill="#2ce9f6"/>
      <path id="Trazado_5" data-name="Trazado 5" d="M-37.941-78.831a9.456,9.456,0,0,1,.874-3.979l-22.058-17.233a23.515,23.515,0,0,1-6.266,11.12,23.522,23.522,0,0,1-16.742,6.935h-4.734a23.519,23.519,0,0,1-16.74-6.935,23.536,23.536,0,0,1-6.083-10.41l-21.972,17.167a9.439,9.439,0,0,1,.6,3.335,9.469,9.469,0,0,1-9.47,9.469A9.469,9.469,0,0,1-150-78.831a9.47,9.47,0,0,1,9.47-9.47,9.427,9.427,0,0,1,5.5,1.757l24.49-19.134v-31.551h0a9.468,9.468,0,0,1,9.469-9.469,9.469,9.469,0,0,1,9.47,9.469v30.777a7.11,7.11,0,0,0,7.1,7.1,7.11,7.11,0,0,0,7.1-7.1v-30.777a9.469,9.469,0,0,1,9.47-9.469,9.468,9.468,0,0,1,9.469,9.469v30.7l25.084,19.6a9.423,9.423,0,0,1,4.9-1.366A9.47,9.47,0,0,1-19-78.831a9.469,9.469,0,0,1-9.47,9.469A9.469,9.469,0,0,1-37.941-78.831Zm-55.241-94.7a9.47,9.47,0,0,1,9.47-9.47,9.47,9.47,0,0,1,9.47,9.47,9.47,9.47,0,0,1-9.47,9.47A9.47,9.47,0,0,1-93.182-173.529Z" transform="translate(161.506 195.405)" fill="#192531"/>
    </g>
  </g>
</svg>
