<svg xmlns="http://www.w3.org/2000/svg" width="117" height="102" viewBox="0 0 117 102">
  <g id="logo-icon" transform="translate(-180 -254)">
    <path id="Polígono_1" data-name="Polígono 1" d="M46.356,21.175a14,14,0,0,1,24.289,0l34.331,59.86A14,14,0,0,1,92.831,102H24.169A14,14,0,0,1,12.024,81.035Z" transform="translate(297 356) rotate(180)" fill="#192531"/>
    <path id="Unión_2" data-name="Unión 2" d="M-114-117a6,6,0,0,1,4-5.659V-139a14.9,14.9,0,0,1-10.606-4.394A14.9,14.9,0,0,1-125-154v-5.989l-15.517-12.124A5.973,5.973,0,0,1-144-171a6,6,0,0,1-6-6,6,6,0,0,1,6-6,6,6,0,0,1,6,6,5.986,5.986,0,0,1-.383,2.113L-125-164.432V-174h0a6,6,0,0,1,6-6,6,6,0,0,1,6,6v19.5a4.505,4.505,0,0,0,4.5,4.5,4.505,4.505,0,0,0,4.5-4.5V-174a6,6,0,0,1,6-6,6,6,0,0,1,6,6v10.11l13.553-10.589A5.979,5.979,0,0,1-79-177a6,6,0,0,1,6-6,6,6,0,0,1,6,6,6,6,0,0,1-6,6,5.973,5.973,0,0,1-3.107-.866L-92-159.449V-154a14.9,14.9,0,0,1-4.393,10.607A14.891,14.891,0,0,1-106-139.033v16.374A6,6,0,0,1-102-117a6,6,0,0,1-6,6A6,6,0,0,1-114-117Z" transform="translate(347 445)" fill="#2ce9f6"/>
  </g>
</svg>
